<?xml version="1.0" standalone="no"?>
<!DOCTYPE svg PUBLIC "-//W3C//DTD SVG 20010904//EN"
 "http://www.w3.org/TR/2001/REC-SVG-20010904/DTD/svg10.dtd">
<svg version="1.0" xmlns="http://www.w3.org/2000/svg"
 width="280.000000pt" height="280.000000pt" viewBox="0 0 280.000000 280.000000"
 preserveAspectRatio="xMidYMid meet">
<metadata>
Created by potrace 1.11, written by Peter Selinger 2001-2013
</metadata>
<g transform="translate(0.000000,280.000000) scale(0.100000,-0.100000)"
fill="#000000" stroke="none">
<path d="M2459 2786 c-241 -63 -329 -333 -144 -441 50 -30 73 -36 138 -36 70
0 149 26 204 68 59 45 77 66 105 123 50 102 10 218 -95 272 -49 25 -143 31
-208 14z"/>
<path d="M1702 2660 c-91 -33 -161 -98 -196 -185 -28 -67 -26 -122 5 -174 39
-65 91 -90 186 -88 140 4 276 115 299 246 3 13 6 26 6 30 1 3 -2 25 -6 47 -5
28 -20 55 -47 82 -61 64 -146 78 -247 42z"/>
<path d="M1134 2560 c-88 -20 -189 -102 -229 -187 -22 -45 -27 -126 -12 -162
28 -67 84 -102 163 -102 171 0 344 197 299 341 -27 88 -118 133 -221 110z"/>
<path d="M573 2445 c-151 -46 -258 -234 -194 -339 57 -91 186 -85 294 14 114
104 135 246 44 307 -42 28 -92 34 -144 18z"/>
<path d="M2420 2125 c-155 -44 -255 -164 -253 -305 1 -68 12 -96 63 -156 107
-125 331 -116 461 18 117 120 122 266 15 374 -75 74 -177 99 -286 69z"/>
<path d="M1584 2029 c-121 -58 -196 -164 -199 -279 -2 -79 11 -114 63 -164 54
-53 88 -65 174 -63 59 2 83 8 126 32 139 76 214 221 181 348 -12 44 -68 111
-113 134 -18 9 -61 17 -102 18 -61 2 -80 -1 -130 -26z"/>
<path d="M991 1953 c-202 -69 -297 -311 -169 -430 55 -52 146 -59 230 -18 65
31 85 47 131 108 138 181 10 409 -192 340z"/>
<path d="M385 1876 c-141 -66 -228 -247 -172 -358 30 -59 77 -88 141 -88 124
1 255 119 285 258 17 81 -3 141 -62 186 -45 35 -122 35 -192 2z"/>
<path d="M2384 1395 c-131 -40 -226 -134 -258 -256 -38 -148 29 -296 166 -367
46 -23 65 -27 143 -27 77 0 98 4 147 27 79 37 142 98 180 176 28 56 32 75 32
141 0 54 -6 89 -21 121 -21 47 -89 124 -133 152 -65 40 -181 55 -256 33z"/>
<path d="M1530 1346 c-108 -28 -208 -125 -246 -238 -70 -211 87 -407 294 -364
107 22 192 90 249 198 24 46 28 64 28 143 0 80 -3 95 -27 136 -65 110 -176
156 -298 125z"/>
<path d="M863 1300 c-81 -18 -184 -108 -222 -194 -57 -130 -40 -254 46 -325
122 -100 318 -29 406 146 46 90 52 182 17 256 -45 95 -141 141 -247 117z"/>
<path d="M224 1253 c-76 -27 -139 -87 -186 -182 -85 -169 -8 -341 146 -329 68
6 121 32 179 90 114 114 139 287 55 379 -50 54 -116 69 -194 42z"/>
<path d="M815 399 c-54 -32 -84 -94 -81 -166 7 -114 81 -171 181 -136 46 15
50 19 37 40 -6 9 -16 9 -46 -1 -47 -16 -67 -12 -98 21 -18 19 -23 37 -25 79
-2 95 42 142 120 130 27 -4 37 -2 41 11 4 9 5 18 2 20 -11 11 -113 13 -131 2z"/>
<path d="M91 313 c-13 -8 -22 -10 -26 -3 -3 5 -13 10 -21 10 -11 0 -14 -22
-14 -115 0 -108 1 -115 20 -115 18 0 20 7 20 83 0 92 15 121 59 114 37 -6 44
-22 44 -111 1 -76 3 -86 19 -86 16 0 18 10 18 84 0 47 -4 96 -9 109 -15 38
-76 54 -110 30z"/>
<path d="M313 313 c-38 -18 -55 -49 -57 -104 -4 -74 33 -118 99 -121 51 -2 88
29 99 81 23 107 -55 186 -141 144z m74 -31 c34 -22 36 -113 4 -146 -27 -27
-68 -14 -85 26 -30 71 26 155 81 120z"/>
<path d="M569 320 c-7 -5 -26 -6 -41 -3 l-28 6 0 -162 c0 -154 1 -161 20 -161
20 0 24 14 21 72 -1 24 1 26 27 19 81 -23 137 37 133 141 -2 56 -90 114 -132
88z m64 -50 c21 -17 25 -27 23 -64 -3 -66 -37 -96 -88 -77 -22 8 -25 15 -26
75 -1 52 2 68 16 75 26 16 47 13 75 -9z"/>
<path d="M1043 309 c-52 -34 -67 -97 -39 -164 17 -39 45 -57 91 -57 71 0 109
52 99 139 -5 47 -37 92 -67 94 -7 0 -22 2 -34 3 -13 2 -35 -5 -50 -15z m91
-38 c27 -30 24 -110 -4 -133 -48 -39 -92 -7 -94 66 -1 74 56 113 98 67z"/>
<path d="M1299 312 c-16 -11 -24 -12 -27 -4 -2 7 -10 12 -18 12 -11 0 -14 -22
-14 -115 0 -108 1 -115 20 -115 21 0 22 5 21 121 0 50 3 58 25 70 46 24 59 5
62 -100 3 -88 4 -92 25 -89 20 3 21 8 20 83 -1 84 12 115 47 115 32 0 43 -28
44 -115 1 -79 2 -85 22 -85 20 0 21 5 20 94 -1 76 -5 98 -19 114 -24 26 -61
32 -93 16 -17 -9 -32 -11 -43 -4 -33 17 -69 18 -92 2z"/>
<path d="M1664 314 c-19 -10 -30 -12 -32 -5 -2 6 -10 11 -17 11 -10 0 -13 -26
-13 -116 0 -111 1 -115 21 -112 19 3 21 10 21 85 1 93 16 120 59 109 29 -7 33
-24 32 -123 -1 -69 0 -73 20 -73 21 0 22 4 21 82 -1 86 8 109 42 115 35 5 50
-32 48 -120 -1 -74 0 -77 22 -77 21 0 22 4 22 85 0 46 -5 96 -12 110 -16 36
-82 50 -115 23 -8 -6 -19 -5 -33 2 -34 18 -56 19 -86 4z"/>
<path d="M2002 308 c-75 -47 -68 -189 11 -214 30 -10 83 -7 107 6 24 13 16 45
-9 34 -38 -16 -74 -12 -97 11 -45 45 -34 55 62 55 l85 0 -5 38 c-6 36 -43 81
-69 83 -7 0 -22 2 -34 3 -12 1 -35 -6 -51 -16z m89 -27 c3 -1 11 -12 17 -26
l12 -25 -66 0 c-68 0 -70 3 -36 43 10 11 25 16 41 13 14 -2 29 -5 32 -5z"/>
<path d="M2269 312 c-16 -11 -24 -12 -27 -4 -2 7 -12 12 -23 12 -18 0 -19 -8
-19 -115 0 -108 1 -115 20 -115 11 0 20 3 21 8 0 4 1 39 2 78 2 81 21 114 62
110 16 -2 25 3 28 15 3 11 2 19 -1 20 -4 0 -15 2 -24 4 -9 2 -27 -4 -39 -13z"/>
<path d="M2430 316 c-88 -29 -103 -161 -24 -213 39 -25 134 -17 134 12 0 21
-19 28 -36 14 -11 -9 -23 -9 -53 -1 -30 9 -40 19 -47 44 -22 72 32 137 91 110
18 -9 26 -8 36 4 15 18 13 19 -32 32 -24 6 -46 6 -69 -2z"/>
<path d="M2655 323 c-41 -7 -75 -48 -81 -96 -11 -78 23 -129 93 -140 41 -6 95
17 87 38 -4 10 -12 14 -23 9 -52 -22 -102 -3 -116 44 -6 22 -5 22 79 22 86 0
86 0 86 26 0 65 -56 109 -125 97z m65 -53 c32 -32 24 -40 -41 -40 -52 0 -60 2
-57 17 3 17 42 43 66 43 6 0 21 -9 32 -20z"/>
</g>
</svg>
